<!-- icon666.com - MILLIONS vector ICONS FREE --><svg viewBox="0 -36 512 512" xmlns="http://www.w3.org/2000/svg"><path d="m496.792969 0h-481.585938c-8.398437 0-15.207031 6.808594-15.207031 15.207031v409.75c0 8.394531 6.808594 15.203125 15.207031 15.203125h481.585938c8.398437 0 15.207031-6.808594 15.207031-15.203125v-409.75c0-8.398437-6.808594-15.207031-15.207031-15.207031zm-102.128907 30.410156v171.511719h-36.535156v-171.511719zm-225.585937 201.925782c8.398437 0 15.207031-6.808594 15.207031-15.207032v-186.71875h23.035156v186.71875c0 8.398438 6.808594 15.207032 15.207032 15.207032h18.265625v177.414062h-89.984375v-177.414062zm102.128906 0h18.265625c8.398438 0 15.207032-6.808594 15.207032-15.207032v-186.71875h23.035156v186.71875c0 8.398438 6.808594 15.207032 15.207031 15.207032h18.269531v177.414062h-89.988281v-177.414062zm3.0625-201.925782v171.511719h-36.539062v-171.511719zm-120.398437 0v171.511719h-36.535156v-171.511719zm-123.460938 0h56.511719v186.71875c0 8.398438 6.808594 15.207032 15.207031 15.207032h18.269532v177.414062h-89.988282zm451.179688 379.339844h-89.988282v-177.414062h18.269532c8.398437 0 15.207031-6.808594 15.207031-15.207032v-186.71875h56.511719zm0 0" fill="#000000" style="fill: rgb(255, 255, 255);"></path></svg>